<?xml version="1.0" encoding="UTF-8" standalone="no"?>
<!DOCTYPE svg PUBLIC "-//W3C//DTD SVG 1.1//EN"
 "http://www.w3.org/Graphics/SVG/1.1/DTD/svg11.dtd">
<!-- Generated by graphviz version 15.0.0 (20260523.1842)
 -->
<!-- Title: causal Pages: 1 -->
<svg width="916pt" height="139pt"
 viewBox="0.00 0.00 916.00 139.00" xmlns="http://www.w3.org/2000/svg" xmlns:xlink="http://www.w3.org/1999/xlink">
<g id="graph0" class="graph" transform="scale(1 1) rotate(0) translate(4 135.17)">
<title>causal</title>
<text xml:space="preserve" text-anchor="middle" x="454.2" y="-7.93" font-family="AppleSDGothicNeo" font-size="11.00" fill="#444444">◀ 과거(배경) &#160;— &#160;핵심사건 &#160;— &#160;미래(결과) ▶ &#160;&#160;&#160;&#160;★ = 기사 경계를 넘어 클러스터링이 연결한 노드</text>
<!-- bg1 -->
<g id="node1" class="node">
<title>bg1</title>
<path fill="#fdebd0" stroke="#e67e22" d="M90.03,-112.38C90.03,-112.38 17.25,-112.38 17.25,-112.38 11.25,-112.38 5.25,-106.38 5.25,-100.38 5.25,-100.38 5.25,-88.38 5.25,-88.38 5.25,-82.38 11.25,-76.38 17.25,-76.38 17.25,-76.38 90.03,-76.38 90.03,-76.38 96.03,-76.38 102.03,-82.38 102.03,-88.38 102.03,-88.38 102.03,-100.38 102.03,-100.38 102.03,-106.38 96.03,-112.38 90.03,-112.38"/>
<text xml:space="preserve" text-anchor="middle" x="53.64" y="-90.48" font-family="AppleSDGothicNeo" font-size="12.00">중동 전쟁·고유가</text>
</g>
<!-- coreA -->
<g id="node3" class="node">
<title>coreA</title>
<path fill="#d6eaf8" stroke="#2e86c1" stroke-width="2" d="M300.81,-88.14C300.81,-88.14 190.53,-88.14 190.53,-88.14 184.53,-88.14 178.53,-82.14 178.53,-76.14 178.53,-76.14 178.53,-58.62 178.53,-58.62 178.53,-52.62 184.53,-46.62 190.53,-46.62 190.53,-46.62 300.81,-46.62 300.81,-46.62 306.81,-46.62 312.81,-52.62 312.81,-58.62 312.81,-58.62 312.81,-76.14 312.81,-76.14 312.81,-82.14 306.81,-88.14 300.81,-88.14"/>
<text xml:space="preserve" text-anchor="middle" x="245.67" y="-70.98" font-family="AppleSDGothicNeo" font-size="12.00">美·이란 휴전·통행료 합의</text>
<text xml:space="preserve" text-anchor="middle" x="245.67" y="-55.98" font-family="AppleSDGothicNeo" font-size="12.00">(CORE · 기사A · 4/7)</text>
</g>
<!-- bg1&#45;&gt;coreA -->
<g id="edge1" class="edge">
<title>bg1&#45;&gt;coreA</title>
<path fill="none" stroke="#666666" d="M102.1,-87.63C121.57,-84.87 144.64,-81.59 166.47,-78.49"/>
<polygon fill="#666666" stroke="#666666" points="166.85,-81.97 176.26,-77.1 165.86,-75.04 166.85,-81.97"/>
<text xml:space="preserve" text-anchor="middle" x="142.9" y="-85.84" font-family="AppleSDGothicNeo" font-size="10.00">CAUSE</text>
</g>
<!-- bg2 -->
<g id="node2" class="node">
<title>bg2</title>
<path fill="#fdebd0" stroke="#e67e22" d="M95.28,-58.38C95.28,-58.38 12,-58.38 12,-58.38 6,-58.38 0,-52.38 0,-46.38 0,-46.38 0,-34.38 0,-34.38 0,-28.38 6,-22.38 12,-22.38 12,-22.38 95.28,-22.38 95.28,-22.38 101.28,-22.38 107.28,-28.38 107.28,-34.38 107.28,-34.38 107.28,-46.38 107.28,-46.38 107.28,-52.38 101.28,-58.38 95.28,-58.38"/>
<text xml:space="preserve" text-anchor="middle" x="53.64" y="-36.48" font-family="AppleSDGothicNeo" font-size="12.00">트럼프 통행료 구상</text>
</g>
<!-- bg2&#45;&gt;coreA -->
<g id="edge2" class="edge">
<title>bg2&#45;&gt;coreA</title>
<path fill="none" stroke="#666666" d="M107.57,-47.9C125.84,-50.49 146.7,-53.45 166.54,-56.27"/>
<polygon fill="#666666" stroke="#666666" points="165.87,-59.71 176.26,-57.66 166.85,-52.78 165.87,-59.71"/>
<text xml:space="preserve" text-anchor="middle" x="142.9" y="-56.43" font-family="AppleSDGothicNeo" font-size="10.00">PRIOR</text>
</g>
<!-- shared -->
<g id="node5" class="node">
<title>shared</title>
<path fill="#fcf3cf" stroke="#b7950b" stroke-width="2" d="M513.09,-131.17C513.09,-131.17 422.31,-131.17 422.31,-131.17 416.31,-131.17 410.31,-125.17 410.31,-119.17 410.31,-119.17 410.31,-101.58 410.31,-101.58 410.31,-95.58 416.31,-89.58 422.31,-89.58 422.31,-89.58 513.09,-89.58 513.09,-89.58 519.09,-89.58 525.09,-95.58 525.09,-101.58 525.09,-101.58 525.09,-119.17 525.09,-119.17 525.09,-125.17 519.09,-131.17 513.09,-131.17"/>
<text xml:space="preserve" text-anchor="middle" x="467.7" y="-114.01" font-family="AppleSDGothicNeo" font-size="12.00">고유가·에너지 비용↑</text>
<text xml:space="preserve" text-anchor="middle" x="467.7" y="-98.94" font-family="AppleSDGothicNeo" font-size="12.00">(공유 노드 ★)</text>
</g>
<!-- coreA&#45;&gt;shared -->
<g id="edge3" class="edge">
<title>coreA&#45;&gt;shared</title>
<path fill="none" stroke="#2e86c1" d="M313.58,-80.45C340.35,-85.68 371.17,-91.71 398.11,-96.97"/>
<polygon fill="#2e86c1" stroke="#2e86c1" points="397.42,-100.4 407.91,-98.89 398.77,-93.53 397.42,-100.4"/>
<text xml:space="preserve" text-anchor="middle" x="360.06" y="-97.94" font-family="AppleSDGothicNeo" font-size="10.00">결과(예측 0.7)</text>
</g>
<!-- cons2 -->
<g id="node7" class="node">
<title>cons2</title>
<path fill="#d5f5e3" stroke="#27ae60" d="M516.09,-71.14C516.09,-71.14 419.31,-71.14 419.31,-71.14 413.31,-71.14 407.31,-65.14 407.31,-59.14 407.31,-59.14 407.31,-41.62 407.31,-41.62 407.31,-35.62 413.31,-29.62 419.31,-29.62 419.31,-29.62 516.09,-29.62 516.09,-29.62 522.09,-29.62 528.09,-35.62 528.09,-41.62 528.09,-41.62 528.09,-59.14 528.09,-59.14 528.09,-65.14 522.09,-71.14 516.09,-71.14"/>
<text xml:space="preserve" text-anchor="middle" x="467.7" y="-53.98" font-family="AppleSDGothicNeo" font-size="12.00">타 해협 유사제도 확산</text>
<text xml:space="preserve" text-anchor="middle" x="467.7" y="-38.98" font-family="AppleSDGothicNeo" font-size="12.00">(예측 conf 0.45)</text>
</g>
<!-- coreA&#45;&gt;cons2 -->
<g id="edge5" class="edge">
<title>coreA&#45;&gt;cons2</title>
<path fill="none" stroke="#666666" d="M313.58,-62.21C339.46,-60.21 369.13,-57.91 395.41,-55.88"/>
<polygon fill="#666666" stroke="#666666" points="395.62,-59.38 405.32,-55.12 395.08,-52.4 395.62,-59.38"/>
<text xml:space="preserve" text-anchor="middle" x="360.06" y="-62.15" font-family="AppleSDGothicNeo" font-size="10.00">SPILLOVER</text>
</g>
<!-- coreB -->
<g id="node4" class="node">
<title>coreB</title>
<path fill="#d6eaf8" stroke="#2e86c1" stroke-width="2" d="M711.12,-131.14C711.12,-131.14 611.34,-131.14 611.34,-131.14 605.34,-131.14 599.34,-125.14 599.34,-119.14 599.34,-119.14 599.34,-101.62 599.34,-101.62 599.34,-95.62 605.34,-89.62 611.34,-89.62 611.34,-89.62 711.12,-89.62 711.12,-89.62 717.12,-89.62 723.12,-95.62 723.12,-101.62 723.12,-101.62 723.12,-119.14 723.12,-119.14 723.12,-125.14 717.12,-131.14 711.12,-131.14"/>
<text xml:space="preserve" text-anchor="middle" x="661.23" y="-113.98" font-family="AppleSDGothicNeo" font-size="12.00">범정부 교통TF 발족</text>
<text xml:space="preserve" text-anchor="middle" x="661.23" y="-98.98" font-family="AppleSDGothicNeo" font-size="12.00">(CORE · 기사B · 4/7)</text>
</g>
<!-- cons1 -->
<g id="node6" class="node">
<title>cons1</title>
<path fill="#d5f5e3" stroke="#27ae60" d="M896.4,-131.14C896.4,-131.14 813.12,-131.14 813.12,-131.14 807.12,-131.14 801.12,-125.14 801.12,-119.14 801.12,-119.14 801.12,-101.62 801.12,-101.62 801.12,-95.62 807.12,-89.62 813.12,-89.62 813.12,-89.62 896.4,-89.62 896.4,-89.62 902.4,-89.62 908.4,-95.62 908.4,-101.62 908.4,-101.62 908.4,-119.14 908.4,-119.14 908.4,-125.14 902.4,-131.14 896.4,-131.14"/>
<text xml:space="preserve" text-anchor="middle" x="854.76" y="-113.98" font-family="AppleSDGothicNeo" font-size="12.00">대중교통 수요 전환</text>
<text xml:space="preserve" text-anchor="middle" x="854.76" y="-98.98" font-family="AppleSDGothicNeo" font-size="12.00">(예측 conf 0.55)</text>
</g>
<!-- coreB&#45;&gt;cons1 -->
<g id="edge6" class="edge">
<title>coreB&#45;&gt;cons1</title>
<path fill="none" stroke="#666666" d="M723.89,-110.38C744.83,-110.38 768.28,-110.38 789.43,-110.38"/>
<polygon fill="#666666" stroke="#666666" points="789.4,-113.88 799.4,-110.38 789.4,-106.88 789.4,-113.88"/>
<text xml:space="preserve" text-anchor="middle" x="762.12" y="-113.08" font-family="AppleSDGothicNeo" font-size="10.00">결과(예측)</text>
</g>
<!-- shared&#45;&gt;coreB -->
<g id="edge4" class="edge">
<title>shared&#45;&gt;coreB</title>
<path fill="none" stroke="#b7950b" stroke-width="2" d="M525.91,-110.38C544.71,-110.38 565.9,-110.38 585.8,-110.38"/>
<polygon fill="#b7950b" stroke="#b7950b" stroke-width="2" points="585.62,-113.88 595.62,-110.38 585.62,-106.88 585.62,-113.88"/>
<text xml:space="preserve" text-anchor="middle" x="563.71" y="-112.13" font-family="AppleSDGothicNeo" font-size="10.00">CAUSE</text>
</g>
</g>
</svg>
